<?xml version="1.0" standalone="no"?>
<!DOCTYPE svg PUBLIC "-//W3C//DTD SVG 20010904//EN"
 "http://www.w3.org/TR/2001/REC-SVG-20010904/DTD/svg10.dtd">
<svg version="1.0" xmlns="http://www.w3.org/2000/svg"
 width="1024.000000pt" height="1024.000000pt" viewBox="0 0 1024.000000 1024.000000"
 preserveAspectRatio="xMidYMid meet">

<g transform="translate(0.000000,1024.000000) scale(0.100000,-0.100000)"
fill="#000000" stroke="none">
<path d="M0 5120 l0 -5120 5120 0 5120 0 0 5120 0 5120 -5120 0 -5120 0 0
-5120z m4540 3297 c0 -3 -804 -807 -807 -807 -2 0 -3 171 -3 379 l0 379 31 26
31 26 374 0 c206 0 374 -1 374 -3z m1605 -22 l25 -24 0 -561 c0 -308 -2 -560
-4 -560 -2 0 -55 52 -117 115 l-114 115 -731 -735 -732 -735 -343 0 -344 0
902 903 903 902 -122 123 -122 123 -805 -806 c-443 -443 -807 -805 -808 -805
-2 0 -3 150 -3 333 l0 333 653 652 652 652 543 0 543 0 24 -25z m25 -1765 l0
-571 -25 -24 -24 -25 -576 0 c-316 0 -575 1 -575 3 0 1 248 250 551 552 303
303 569 569 592 593 22 23 44 42 49 42 4 0 8 -257 8 -570z m2410 -567 c0 -5
-61 -88 -136 -185 l-135 -178 -145 0 c-80 0 -144 4 -142 8 2 5 39 88 83 185
l80 177 198 0 c108 0 197 -3 197 -7z m-6285 -496 c105 -35 194 -88 269 -162
81 -79 165 -205 138 -205 -6 0 -39 -13 -74 -29 -35 -16 -107 -50 -162 -75 -54
-25 -102 -46 -105 -46 -4 0 -15 16 -25 35 -58 108 -191 173 -332 162 -159 -12
-286 -113 -348 -275 -18 -48 -21 -78 -21 -187 0 -129 0 -130 37 -205 64 -131
164 -208 300 -232 125 -22 222 16 335 130 l73 74 165 -73 c91 -40 165 -77 165
-82 0 -22 -94 -139 -162 -201 -87 -81 -184 -137 -293 -168 -106 -30 -353 -33
-455 -5 -215 59 -388 202 -485 402 -68 140 -79 194 -79 380 0 167 4 195 51
315 91 231 302 407 558 466 41 9 108 13 215 10 135 -3 166 -7 235 -29z m1466
-177 c64 -170 146 -389 255 -680 147 -389 251 -676 247 -682 -2 -5 -98 -8
-213 -8 l-210 0 -47 150 -48 150 -290 0 -290 0 -46 -148 -45 -147 -215 0
c-137 0 -213 4 -212 10 4 17 572 1525 578 1536 4 6 96 8 237 7 l231 -3 68
-185z m1432 175 c225 -34 371 -155 422 -352 31 -118 15 -295 -37 -402 -28 -59
-120 -149 -188 -185 -30 -16 -57 -30 -59 -32 -3 -3 96 -170 251 -422 48 -79
88 -146 88 -148 0 -2 -102 -3 -226 -2 l-226 3 -62 115 c-35 63 -95 175 -135
248 l-73 132 -104 0 -105 0 1 -247 1 -248 -195 -3 -196 -2 0 780 0 780 373 0
c276 0 397 -4 470 -15z m1017 -765 l0 -780 -192 2 c-147 2 -193 6 -192 16 1 6
2 356 3 777 l1 765 190 0 190 0 0 -780z m1395 758 c3 -13 4 -93 3 -178 l-3
-155 -220 -5 -220 -5 0 -595 0 -595 -192 -3 -193 -2 0 600 0 600 -224 0 -225
0 0 173 c-1 95 2 176 5 180 4 4 290 7 635 7 l629 0 5 -22z m875 -133 c31 -82
84 -224 117 -315 67 -181 302 -814 364 -979 21 -58 39 -106 39 -108 0 -2 -97
-2 -216 -1 l-216 3 -46 148 -45 147 -288 0 -287 0 -40 -127 c-23 -71 -44 -138
-47 -151 l-6 -22 -212 2 c-135 2 -211 7 -210 13 1 6 64 172 138 370 75 198
157 416 182 485 25 69 58 159 74 200 129 344 179 480 179 486 0 3 104 3 232 2
l232 -3 56 -150z m-316 -1741 c6 -16 8 -16 24 0 18 16 72 23 72 9 0 -4 -10
-17 -22 -30 -31 -33 -96 -32 -125 1 -12 13 -19 27 -16 30 13 13 61 5 67 -10z
m-6539 -106 c40 -114 34 -111 64 -28 25 71 28 75 59 78 l32 3 0 -131 0 -131
-27 3 c-26 3 -26 4 -25 78 l2 75 -26 -67 c-35 -91 -55 -91 -84 -3 -12 36 -22
65 -24 65 -1 0 0 -34 2 -76 l4 -76 -26 4 -27 3 0 120 c-1 66 -1 123 0 128 1 4
14 7 29 7 25 0 30 -6 47 -52z m438 -66 c20 -65 37 -124 37 -130 0 -7 -11 -12
-25 -12 -19 0 -26 7 -33 33 -7 28 -13 32 -45 35 -33 3 -37 1 -45 -30 -7 -28
-13 -33 -41 -36 -24 -3 -32 0 -28 10 3 7 22 66 43 131 38 116 38 117 69 117
31 0 31 0 68 -118z m307 93 c0 -22 -4 -25 -35 -25 l-35 0 0 -106 0 -105 -27 3
-28 3 -3 103 -3 102 -34 0 c-31 0 -35 3 -35 25 l0 25 100 0 100 0 0 -25z m278
-2 c3 -22 0 -23 -52 -23 -56 0 -56 0 -56 -30 0 -29 2 -30 45 -30 38 0 45 -3
45 -20 0 -17 -7 -20 -45 -20 -43 0 -45 -1 -45 -30 0 -30 1 -30 55 -30 52 0 55
-1 55 -25 0 -25 -1 -25 -79 -25 l-80 0 -3 126 c-2 69 -1 128 2 130 2 3 38 3
80 2 69 -3 75 -5 78 -25z m293 -2 c26 -32 24 -77 -5 -106 l-24 -24 24 -38 c31
-51 31 -65 -3 -61 -20 2 -34 15 -53 47 -37 63 -50 64 -50 1 0 -50 -1 -51 -27
-48 l-28 3 -3 114 c-2 62 -1 120 2 128 5 12 21 14 77 11 60 -3 74 -8 90 -27z
m189 -101 l0 -130 -25 0 -25 0 0 130 0 130 25 0 25 0 0 -130z m294 8 c21 -68
37 -125 37 -128 -1 -3 -13 -5 -28 -5 -22 0 -29 6 -37 33 -8 30 -12 33 -45 30
-30 -3 -36 -7 -43 -35 -7 -25 -14 -33 -32 -33 -12 0 -25 2 -28 5 -3 3 13 62
36 130 40 124 41 125 71 125 30 0 31 -1 69 -122z m196 -8 l0 -130 -24 0 -25 0
-3 126 c-2 69 -1 128 1 130 2 2 15 4 28 4 23 0 23 0 23 -130z m286 108 c12
-11 12 -17 2 -31 -11 -15 -18 -15 -44 -5 -32 12 -64 6 -64 -12 0 -5 22 -21 50
-35 59 -30 84 -62 74 -99 -9 -37 -41 -56 -92 -56 -45 0 -92 23 -92 45 0 19 28
27 51 14 29 -15 73 -7 77 14 3 12 -10 23 -45 37 -78 34 -95 79 -47 127 22 22
32 25 71 20 25 -2 51 -11 59 -19z m473 -2 c21 -19 28 -67 15 -101 -9 -22 -57
-45 -94 -45 -29 0 -30 -2 -30 -45 0 -41 -2 -45 -25 -45 l-25 0 0 131 0 131 69
-4 c50 -2 75 -9 90 -22z m274 -96 c21 -66 37 -123 38 -127 0 -5 -11 -9 -25
-11 -20 -3 -26 3 -36 33 -11 34 -14 36 -48 33 -31 -3 -37 -7 -44 -35 -7 -26
-14 -33 -33 -33 -33 0 -32 12 12 147 37 112 38 113 68 113 31 0 31 0 68 -120z
m316 96 c27 -25 27 -75 0 -110 l-21 -26 25 -44 c27 -48 26 -56 -9 -56 -17 0
-30 13 -50 50 -15 28 -33 50 -41 50 -9 0 -13 -15 -13 -50 0 -46 -2 -50 -24
-50 l-25 0 -3 126 c-2 69 -1 128 2 131 3 3 35 3 72 1 47 -2 73 -9 87 -22z
m294 -95 c20 -66 37 -125 37 -131 0 -6 -12 -10 -27 -8 -21 2 -29 10 -35 36 -8
28 -13 32 -43 32 -30 0 -35 -4 -43 -32 -6 -26 -14 -34 -35 -36 -17 -2 -27 1
-27 10 0 7 16 66 37 131 37 116 37 117 68 117 31 0 31 0 68 -119z m498 100
c20 -16 21 -20 8 -33 -10 -12 -19 -13 -36 -5 -31 14 -68 1 -81 -28 -35 -77 14
-153 76 -121 22 11 32 12 41 3 18 -18 13 -33 -14 -45 -59 -27 -134 -3 -156 50
-16 40 -7 133 17 159 37 42 106 52 145 20z m273 9 c80 -30 88 -182 14 -234
-46 -33 -133 -12 -155 37 -22 48 -25 92 -9 133 26 63 86 89 150 64z m293 -68
l43 -77 0 78 c0 75 1 77 25 77 l25 0 0 -131 0 -130 -27 3 c-22 2 -34 17 -70
83 l-43 80 0 -82 c0 -82 0 -83 -25 -83 l-25 0 0 130 0 130 28 0 c23 0 32 -10
69 -78z m378 57 c11 -11 11 -17 1 -31 -11 -15 -18 -16 -43 -6 -31 12 -63 6
-63 -12 0 -5 24 -22 53 -36 28 -15 55 -32 59 -38 15 -22 8 -76 -12 -96 -27
-27 -105 -27 -140 0 -23 18 -24 20 -9 35 15 16 19 16 48 1 24 -13 36 -14 51
-6 32 17 23 36 -27 60 -57 26 -73 44 -73 81 0 43 44 72 99 66 23 -3 49 -11 56
-18z m315 -4 c0 -22 -4 -25 -35 -25 l-34 0 -3 -102 c-3 -102 -3 -103 -28 -103
-25 0 -25 1 -28 103 l-3 102 -34 0 c-31 0 -35 3 -35 25 l0 25 100 0 100 0 0
-25z m281 -4 c26 -32 24 -77 -5 -106 l-24 -24 28 -45 c31 -48 30 -56 -7 -56
-17 0 -30 12 -51 50 -35 65 -52 65 -52 -1 0 -48 -1 -50 -26 -47 l-25 3 0 120
c0 66 0 124 0 129 1 4 33 6 72 4 60 -3 74 -8 90 -27z m189 -66 c0 -89 1 -95
24 -110 53 -35 83 28 74 152 -3 46 -2 48 25 51 l29 4 -4 -107 c-3 -103 -4
-108 -31 -131 -40 -34 -105 -33 -138 2 -22 23 -24 36 -27 130 l-4 104 26 0 26
0 0 -95z m450 80 c26 -14 28 -18 17 -35 -7 -13 -18 -18 -27 -14 -64 28 -110 1
-110 -64 0 -54 24 -84 63 -80 27 2 33 8 35 30 3 24 0 28 -20 25 -17 -1 -24 4
-26 21 -3 20 0 22 47 22 l51 0 0 -52 c0 -34 -6 -58 -17 -70 -9 -11 -11 -18 -5
-18 18 0 14 -46 -4 -61 -20 -16 -80 -17 -96 -1 -10 10 -10 17 0 32 11 18 9 21
-10 29 -13 5 -34 21 -48 36 -21 22 -25 36 -25 85 1 49 5 64 25 86 43 46 98 56
150 29z m311 -110 c21 -66 39 -124 39 -128 0 -5 -12 -7 -27 -5 -21 2 -29 10
-37 36 -8 28 -13 32 -42 32 -29 0 -36 -5 -48 -35 -12 -27 -21 -35 -40 -35 -15
0 -26 3 -26 6 0 4 29 97 76 242 2 8 16 12 35 10 30 -3 31 -6 70 -123z m300
108 c28 -17 59 -75 59 -113 0 -39 -32 -101 -61 -115 -49 -26 -97 -19 -135 19
-29 29 -34 41 -34 83 0 113 85 176 171 126z m-1906 -164 c11 -16 1 -19 -13 -3
-7 8 -8 14 -3 14 5 0 13 -5 16 -11z m-3268 -61 c-3 -8 -6 -5 -6 6 -1 11 2 17
5 13 3 -3 4 -12 1 -19z"/>
<path d="M3364 4926 l-91 -275 181 -3 c100 -2 182 -3 183 -2 2 0 -39 125 -90
277 l-92 278 -91 -275z"/>
<path d="M4740 5055 l0 -187 173 4 c185 4 237 17 285 68 46 49 48 170 4 229
-39 53 -81 64 -279 69 l-183 5 0 -188z"/>
<path d="M8096 4926 c-49 -149 -89 -272 -88 -274 1 -1 83 -3 182 -5 99 -1 180
-2 180 -2 0 0 -41 124 -90 275 -50 151 -92 275 -93 276 -1 1 -42 -120 -91
-270z"/>
<path d="M1984 3521 c-11 -39 -10 -41 12 -41 27 0 27 2 10 48 l-12 33 -10 -40z"/>
<path d="M2830 3545 c0 -29 4 -35 22 -35 12 0 30 7 39 16 26 23 8 54 -31 54
-28 0 -30 -3 -30 -35z"/>
<path d="M3342 3524 c-13 -43 -11 -47 15 -42 17 3 18 7 8 42 l-11 38 -12 -38z"/>
<path d="M4270 3545 c0 -30 3 -35 24 -35 36 0 56 10 56 29 0 25 -20 41 -52 41
-25 0 -28 -3 -28 -35z"/>
<path d="M4573 3522 c-13 -42 -12 -45 14 -40 17 3 18 7 8 40 l-10 38 -12 -38z"/>
<path d="M4860 3545 c0 -30 3 -35 24 -35 23 0 56 23 56 39 0 16 -25 31 -52 31
-25 0 -28 -3 -28 -35z"/>
<path d="M5182 3524 c-13 -43 -11 -47 15 -42 17 3 18 7 8 42 l-11 38 -12 -38z"/>
<path d="M5946 3558 c-25 -35 -20 -94 9 -123 29 -30 36 -31 65 -7 31 25 34
100 6 131 -25 27 -61 27 -80 -1z"/>
<path d="M7190 3545 c0 -30 3 -35 23 -35 27 0 41 10 49 31 9 23 -10 39 -44 39
-25 0 -28 -3 -28 -35z"/>
<path d="M7875 3360 c3 -5 13 -10 21 -10 8 0 14 5 14 10 0 6 -9 10 -21 10 -11
0 -17 -4 -14 -10z"/>
<path d="M8170 3538 c0 -7 -3 -23 -6 -35 -5 -19 -2 -23 16 -23 18 0 21 4 16
23 -3 12 -6 28 -6 35 0 6 -4 12 -10 12 -5 0 -10 -6 -10 -12z"/>
<path d="M8456 3565 c-21 -21 -29 -75 -17 -107 29 -77 111 -45 111 44 0 65
-55 101 -94 63z"/>
</g>
</svg>
